<mxfile host="app.diagrams.net" modified="2023-10-06T10:28:13.695Z" agent="Mozilla/5.0 (Windows NT 10.0; Win64; x64) AppleWebKit/537.36 (KHTML, like Gecko) Chrome/117.0.0.0 Safari/537.36" etag="mcwUf-QJ7HZOPmPDQ3e7" version="22.0.3" type="github">
  <diagram name="Page-1" id="5i1r2YGFFUyql7OJAla6">
    <mxGraphModel dx="1232" dy="1132" grid="1" gridSize="10" guides="1" tooltips="1" connect="1" arrows="1" fold="1" page="1" pageScale="1" pageWidth="850" pageHeight="1100" math="0" shadow="0">
      <root>
        <mxCell id="0" />
        <mxCell id="1" parent="0" />
        <mxCell id="p4OobXt50lWU_t956ZMm-5" style="edgeStyle=orthogonalEdgeStyle;rounded=0;orthogonalLoop=1;jettySize=auto;html=1;exitX=0.5;exitY=1;exitDx=0;exitDy=0;" edge="1" parent="1" source="p4OobXt50lWU_t956ZMm-1" target="p4OobXt50lWU_t956ZMm-6">
          <mxGeometry relative="1" as="geometry">
            <mxPoint x="395" y="340" as="targetPoint" />
          </mxGeometry>
        </mxCell>
        <mxCell id="p4OobXt50lWU_t956ZMm-1" value="Start menu" style="rounded=0;whiteSpace=wrap;html=1;" vertex="1" parent="1">
          <mxGeometry x="310" y="100" width="170" height="80" as="geometry" />
        </mxCell>
        <mxCell id="p4OobXt50lWU_t956ZMm-7" style="edgeStyle=orthogonalEdgeStyle;rounded=0;orthogonalLoop=1;jettySize=auto;html=1;" edge="1" parent="1" source="p4OobXt50lWU_t956ZMm-6" target="p4OobXt50lWU_t956ZMm-8">
          <mxGeometry relative="1" as="geometry">
            <mxPoint x="230" y="290" as="targetPoint" />
          </mxGeometry>
        </mxCell>
        <mxCell id="p4OobXt50lWU_t956ZMm-14" style="edgeStyle=orthogonalEdgeStyle;rounded=0;orthogonalLoop=1;jettySize=auto;html=1;exitX=0.5;exitY=1;exitDx=0;exitDy=0;" edge="1" parent="1" source="p4OobXt50lWU_t956ZMm-6" target="p4OobXt50lWU_t956ZMm-15">
          <mxGeometry relative="1" as="geometry">
            <mxPoint x="395" y="380" as="targetPoint" />
          </mxGeometry>
        </mxCell>
        <mxCell id="p4OobXt50lWU_t956ZMm-19" style="edgeStyle=orthogonalEdgeStyle;rounded=0;orthogonalLoop=1;jettySize=auto;html=1;exitX=0;exitY=1;exitDx=0;exitDy=0;" edge="1" parent="1" source="p4OobXt50lWU_t956ZMm-6" target="p4OobXt50lWU_t956ZMm-20">
          <mxGeometry relative="1" as="geometry">
            <mxPoint x="200" y="400" as="targetPoint" />
          </mxGeometry>
        </mxCell>
        <mxCell id="p4OobXt50lWU_t956ZMm-6" value="Start learning new&amp;nbsp;sentence" style="rounded=0;whiteSpace=wrap;html=1;" vertex="1" parent="1">
          <mxGeometry x="335" y="260" width="120" height="60" as="geometry" />
        </mxCell>
        <mxCell id="p4OobXt50lWU_t956ZMm-10" style="edgeStyle=orthogonalEdgeStyle;rounded=0;orthogonalLoop=1;jettySize=auto;html=1;exitX=0.5;exitY=0;exitDx=0;exitDy=0;entryX=0;entryY=0.5;entryDx=0;entryDy=0;" edge="1" parent="1" source="p4OobXt50lWU_t956ZMm-8" target="p4OobXt50lWU_t956ZMm-1">
          <mxGeometry relative="1" as="geometry" />
        </mxCell>
        <mxCell id="p4OobXt50lWU_t956ZMm-8" value="Back to main menu" style="rounded=0;whiteSpace=wrap;html=1;" vertex="1" parent="1">
          <mxGeometry x="140" y="260" width="120" height="60" as="geometry" />
        </mxCell>
        <mxCell id="p4OobXt50lWU_t956ZMm-24" style="edgeStyle=orthogonalEdgeStyle;rounded=0;orthogonalLoop=1;jettySize=auto;html=1;exitX=0.5;exitY=1;exitDx=0;exitDy=0;" edge="1" parent="1" source="p4OobXt50lWU_t956ZMm-15" target="p4OobXt50lWU_t956ZMm-25">
          <mxGeometry relative="1" as="geometry">
            <mxPoint x="395" y="520" as="targetPoint" />
          </mxGeometry>
        </mxCell>
        <mxCell id="p4OobXt50lWU_t956ZMm-15" value="User message." style="rounded=0;whiteSpace=wrap;html=1;" vertex="1" parent="1">
          <mxGeometry x="335" y="390" width="120" height="60" as="geometry" />
        </mxCell>
        <mxCell id="p4OobXt50lWU_t956ZMm-20" value="It is not voice. Will say &quot;send voice message please&quot;." style="rounded=0;whiteSpace=wrap;html=1;" vertex="1" parent="1">
          <mxGeometry x="140" y="390" width="120" height="60" as="geometry" />
        </mxCell>
        <mxCell id="p4OobXt50lWU_t956ZMm-25" value="Recieve, handle message, send response by AI model" style="rounded=0;whiteSpace=wrap;html=1;" vertex="1" parent="1">
          <mxGeometry x="300" y="480" width="135" height="70" as="geometry" />
        </mxCell>
      </root>
    </mxGraphModel>
  </diagram>
</mxfile>
